<svg width="130" height="46" viewBox="0 0 130 46" fill="none" xmlns="http://www.w3.org/2000/svg">
<g filter="url(#filter0_d_399_349)">
<path fill-rule="evenodd" clip-rule="evenodd" d="M35.8149 21.8149L35.8149 21.8301V27.3696H35.815V34.4066H35.815V36.9994H35.8149C33.2804 36.9994 31.2032 35.0411 31.014 32.555H31V32.1845V26.6298V21.8143V17H31C33.6592 17 35.8149 19.1557 35.8149 21.8149ZM31 36.9995H35.8149V36.9997H31V36.9995Z" fill="white"/>
<path fill-rule="evenodd" clip-rule="evenodd" d="M4.00017 17H8.81513V30.3332H8.82192C8.91627 31.5765 9.95497 32.5559 11.2224 32.5559C12.4899 32.5559 13.5286 31.5765 13.6229 30.3332H13.6299V30.1484V22.9658L13.63 22.9658V17H18.4449V29.9631H18.4521C18.4474 30.0243 18.4451 30.0861 18.4451 30.1484C18.4451 31.478 19.5229 32.5559 20.8525 32.5559C22.1793 32.5559 23.2553 31.4827 23.26 30.1571V30.1397C23.2598 30.0803 23.2574 30.0214 23.253 29.9631H23.2598V22.9657L23.26 22.9658V21.843L23.2599 21.815C23.2599 19.1557 25.4157 17 28.0749 17C28.0749 17 28.075 17 28.0751 17V26.6299C28.075 26.6299 28.075 26.6299 28.075 26.6299V29.7561L28.075 29.7773L28.075 29.7985V30.3338H28.0539C27.7698 34.0626 24.6542 36.9998 20.8526 36.9998C19.0027 36.9998 17.3153 36.3043 16.0375 35.1606C14.7597 36.3043 13.0723 36.9998 11.2224 36.9998C7.42083 36.9998 4.30523 34.0626 4.02112 30.3338H4.00017V29.828L4 29.7773L4.00017 29.7266V17ZM32.89 21.815L32.89 21.8268V21.8031L32.89 21.815Z" fill="white"/>
<path fill-rule="evenodd" clip-rule="evenodd" d="M126 36.999H121.185V23.6662H121.178C121.084 22.4225 120.045 21.4426 118.778 21.4426C117.51 21.4426 116.471 22.4225 116.377 23.6662H116.37V23.8501V31.0332L116.37 31.0331V36.999H111.555V31.0332L111.555 31.0332V24.0357H111.548C111.553 23.9745 111.555 23.9126 111.555 23.8502C111.555 22.5206 110.477 21.4427 109.148 21.4427C107.821 21.4427 106.744 22.5162 106.74 23.8421V23.8583C106.74 23.918 106.743 23.9771 106.747 24.0357H106.74V31.0333L106.74 31.0333V32.1836H106.74V32.1841C106.74 34.8432 104.584 36.999 101.925 36.999C101.925 36.999 101.925 36.999 101.925 36.999V27.3691C101.925 27.3691 101.925 27.3691 101.925 27.3691V24.2668L101.925 24.2217L101.925 24.1767V23.6648H101.946C102.231 19.9362 105.346 16.9993 109.147 16.9993C110.997 16.9993 112.685 17.6947 113.962 18.8384C115.24 17.6947 116.928 16.9992 118.778 16.9992C122.579 16.9992 125.695 19.9364 125.979 23.6653H126V24.171L126 24.2217L126 24.2724V36.999ZM97.11 32.1841L97.11 32.1722V32.1959L97.11 32.1841Z" fill="white"/>
<path d="M50.3398 37H38.7617V31.9531H50.3398C50.6862 31.9531 50.9831 31.8294 51.2305 31.582C51.4779 31.3346 51.6016 31.0378 51.6016 30.6914C51.6016 30.3327 51.4779 30.0977 51.2305 29.9863C50.9831 29.875 50.6862 29.8193 50.3398 29.8193H45.0703C44.1921 29.8193 43.3695 29.6523 42.6025 29.3184C41.8356 28.9844 41.1676 28.5329 40.5986 27.9639C40.0296 27.3825 39.5781 26.7083 39.2441 25.9414C38.9225 25.1745 38.7617 24.3519 38.7617 23.4736C38.7617 22.5954 38.9225 21.7728 39.2441 21.0059C39.5781 20.2389 40.0296 19.571 40.5986 19.002C41.1676 18.4329 41.8356 17.9876 42.6025 17.666C43.3695 17.332 44.1921 17.165 45.0703 17.165H55.3311V22.2119H45.0703C44.724 22.2119 44.4271 22.3356 44.1797 22.583C43.9323 22.8304 43.8086 23.1273 43.8086 23.4736C43.8086 23.8324 43.9323 24.1416 44.1797 24.4014C44.4271 24.6488 44.724 24.7725 45.0703 24.7725H50.3398C51.2057 24.7725 52.0221 24.9209 52.7891 25.2178C53.556 25.5023 54.224 25.9043 54.793 26.4238C55.362 26.9434 55.8135 27.568 56.1475 28.2979C56.4814 29.0277 56.6484 29.8255 56.6484 30.6914C56.6484 31.5697 56.4814 32.3923 56.1475 33.1592C55.8135 33.9137 55.362 34.5817 54.793 35.1631C54.224 35.7321 53.556 36.1836 52.7891 36.5176C52.0221 36.8392 51.2057 37 50.3398 37Z" fill="white"/>
<path d="M99.4653 27.3862C99.4653 28.7534 99.2204 30.0295 98.7305 31.2144C98.2406 32.3879 97.5741 33.4076 96.731 34.2734C95.8879 35.1279 94.8966 35.8058 93.7573 36.3071C92.6294 36.797 91.416 37.042 90.1172 37.042C88.8298 37.042 87.6164 36.797 86.4771 36.3071C85.3491 35.8058 84.3579 35.1279 83.5034 34.2734C82.6603 33.4076 81.9938 32.3879 81.5039 31.2144C81.014 30.0295 80.769 28.7534 80.769 27.3862C80.769 25.9963 81.014 24.7088 81.5039 23.5239C81.9938 22.339 82.6603 21.3193 83.5034 20.4648C84.3579 19.599 85.3491 18.9211 86.4771 18.4312C87.6164 17.9412 88.8298 17.6963 90.1172 17.6963C91.416 17.6963 92.6294 17.9299 93.7573 18.397C94.8966 18.8527 95.8879 19.5078 96.731 20.3623C97.5741 21.2054 98.2406 22.2251 98.7305 23.4214C99.2204 24.6063 99.4653 25.9279 99.4653 27.3862ZM94.7656 27.3862C94.7656 26.6343 94.6403 25.9564 94.3896 25.3525C94.1504 24.7373 93.82 24.2132 93.3984 23.7803C92.9769 23.3359 92.4813 22.9998 91.9116 22.772C91.3534 22.5327 90.7552 22.4131 90.1172 22.4131C89.4792 22.4131 88.8753 22.5327 88.3057 22.772C87.7474 22.9998 87.2575 23.3359 86.8359 23.7803C86.4258 24.2132 86.1011 24.7373 85.8618 25.3525C85.6226 25.9564 85.5029 26.6343 85.5029 27.3862C85.5029 28.0926 85.6226 28.7477 85.8618 29.3516C86.1011 29.9554 86.4258 30.4795 86.8359 30.9238C87.2575 31.3682 87.7474 31.7214 88.3057 31.9834C88.8753 32.234 89.4792 32.3594 90.1172 32.3594C90.7552 32.3594 91.3534 32.2397 91.9116 32.0005C92.4813 31.7612 92.9769 31.4251 93.3984 30.9922C93.82 30.5592 94.1504 30.0352 94.3896 29.4199C94.6403 28.8047 94.7656 28.1268 94.7656 27.3862Z" fill="white"/>
<path fill-rule="evenodd" clip-rule="evenodd" d="M77.4998 36.6826H78.1963V11.0991H73.4966V19.644C73.2459 19.2795 72.9383 18.9718 72.5737 18.7212C72.2091 18.4705 71.8161 18.2712 71.3945 18.123C70.9844 17.9635 70.5571 17.8496 70.1128 17.7812C69.6799 17.7129 69.2583 17.6787 68.8481 17.6787C67.5607 17.6787 66.3473 17.9237 65.208 18.4136C64.0801 18.9035 63.0889 19.5814 62.2344 20.4473C61.3913 21.3132 60.7248 22.3385 60.2349 23.5234C59.745 24.7083 59.5 25.9901 59.5 27.3687C59.5 28.7586 59.745 30.0461 60.2349 31.231C60.7248 32.4045 61.3913 33.4242 62.2344 34.29C63.0889 35.1445 64.0801 35.8167 65.208 36.3066C66.3473 36.7852 67.5607 37.0244 68.8481 37.0244C69.4406 37.0244 70.0216 36.9504 70.5913 36.8022C71.1724 36.6541 71.7363 36.4548 72.2832 36.2041C72.8301 35.9421 73.3485 35.6401 73.8384 35.2983C73.9475 35.2214 74.0553 35.1435 74.1618 35.0644C74.8324 36.0521 75.9492 36.6986 77.2136 36.6986C77.3099 36.6986 77.4053 36.6949 77.4998 36.6875V36.6826ZM73.1206 25.5229C73.3713 26.1154 73.4966 26.7306 73.4966 27.3687C73.4966 28.0067 73.3713 28.6276 73.1206 29.2314C72.8813 29.8239 72.5509 30.3537 72.1294 30.8208C71.7078 31.2765 71.2122 31.6468 70.6426 31.9316C70.0843 32.2051 69.4862 32.3418 68.8481 32.3418C68.2101 32.3418 67.6063 32.2108 67.0366 31.9487C66.4784 31.6867 65.9884 31.3278 65.5669 30.8721C65.1567 30.4163 64.832 29.8866 64.5928 29.2827C64.3535 28.6789 64.2339 28.0409 64.2339 27.3687C64.2339 26.5939 64.3535 25.8989 64.5928 25.2837C64.832 24.6685 65.1567 24.1501 65.5669 23.7285C65.9884 23.2956 66.4784 22.9652 67.0366 22.7373C67.6063 22.5094 68.2101 22.3955 68.8481 22.3955C69.4862 22.3955 70.0843 22.5379 70.6426 22.8228C71.2122 23.0962 71.7078 23.4665 72.1294 23.9336C72.5509 24.3893 72.8813 24.9191 73.1206 25.5229Z" fill="white"/>
</g>
<path d="M30.5581 13.3099L36.6966 11.0548L35.5803 17.4985L30.5581 13.3099Z" fill="#CD0000"/>
<path d="M35.3676 10.659L31.5136 12.1014L32.1979 8.03464L35.3676 10.659Z" fill="#FFF175"/>
<defs>
<filter id="filter0_d_399_349" x="0" y="11.0991" width="130" height="33.9429" filterUnits="userSpaceOnUse" color-interpolation-filters="sRGB">
<feFlood flood-opacity="0" result="BackgroundImageFix"/>
<feColorMatrix in="SourceAlpha" type="matrix" values="0 0 0 0 0 0 0 0 0 0 0 0 0 0 0 0 0 0 127 0" result="hardAlpha"/>
<feOffset dy="4"/>
<feGaussianBlur stdDeviation="2"/>
<feComposite in2="hardAlpha" operator="out"/>
<feColorMatrix type="matrix" values="0 0 0 0 0 0 0 0 0 0 0 0 0 0 0 0 0 0 0.25 0"/>
<feBlend mode="normal" in2="BackgroundImageFix" result="effect1_dropShadow_399_349"/>
<feBlend mode="normal" in="SourceGraphic" in2="effect1_dropShadow_399_349" result="shape"/>
</filter>
</defs>
</svg>
